<svg fill="#787878" version="1.1" id="Capa_1" xmlns="http://www.w3.org/2000/svg"
                    xmlns:xlink="http://www.w3.org/1999/xlink" width="75px" height="75px" viewBox="0 0 124.00 124.00"
                    xml:space="preserve" stroke="#787878" transform="rotate(0)" stroke-width="0.0012400000000000002">
                    <g id="SVGRepo_bgCarrier" stroke-width="0"></g>
                    <g id="SVGRepo_tracerCarrier" stroke-linecap="round" stroke-linejoin="round" stroke="#CCCCCC"
                        stroke-width="1.984"></g>
                    <g id="SVGRepo_iconCarrier">
                        <g>
                            <path d="M112,6H12C5.4,6,0,11.4,0,18s5.4,12,12,12h100c6.6,0,12-5.4,12-12S118.6,6,112,6z">
                            </path>
                            <path
                                d="M112,50H12C5.4,50,0,55.4,0,62c0,6.6,5.4,12,12,12h100c6.6,0,12-5.4,12-12C124,55.4,118.6,50,112,50z">
                            </path>
                            <path
                                d="M112,94H12c-6.6,0-12,5.4-12,12s5.4,12,12,12h100c6.6,0,12-5.4,12-12S118.6,94,112,94z">
                            </path>
                        </g>
                    </g>
                </svg>